<svg width="18" height="17" viewBox="0 0 18 17" fill="none" xmlns="http://www.w3.org/2000/svg">
    <path
        d="M17.4314 8.22759L9.37864 0.17876C9.26338 0.0642613 9.10751 0 8.94504 0C8.78258 0 8.62671 0.0642613 8.51145 0.17876L0.458714 8.22759C0.340611 8.34523 0.247272 8.48534 0.184207 8.63965C0.121142 8.79396 0.0896283 8.95934 0.0915269 9.12603C0.0993394 9.81353 0.671605 10.3624 1.3591 10.3624H2.18918V16.7237H15.7009V10.3624H16.5486C16.8825 10.3624 17.197 10.2315 17.4333 9.99517C17.5497 9.87917 17.6419 9.74125 17.7046 9.58938C17.7673 9.4375 17.7992 9.2747 17.7986 9.1104C17.7986 8.77837 17.6677 8.46392 17.4314 8.22759ZM10.0388 15.3174H7.85129V11.3331H10.0388V15.3174ZM14.2947 8.9561V15.3174H11.2888V10.8643C11.2888 10.4327 10.9392 10.0831 10.5075 10.0831H7.38254C6.9509 10.0831 6.60129 10.4327 6.60129 10.8643V15.3174H3.59543V8.9561H1.72043L8.94699 1.7354L16.1716 8.9561H14.2947Z"
        fill="#059669" />
</svg>