<svg width="17" height="17" viewBox="0 0 17 17" fill="none" xmlns="http://www.w3.org/2000/svg">
    <path
        d="M16.7659 15.3924L13.6742 12.3257C14.8743 10.8294 15.4555 8.93013 15.2982 7.01847C15.141 5.1068 14.2573 3.32804 12.8288 2.04792C11.4004 0.76781 9.53572 0.0836402 7.61834 0.13611C5.70094 0.18858 3.87651 0.97369 2.52019 2.33C1.16388 3.68632 0.378766 5.51075 0.326296 7.42815C0.273826 9.34553 0.957996 11.2102 2.23811 12.6386C3.51823 14.0671 5.29699 14.9508 7.20866 15.108C9.12032 15.2653 11.0196 14.6841 12.5159 13.484L15.5826 16.5507C15.66 16.6288 15.7522 16.6908 15.8537 16.7331C15.9553 16.7754 16.0642 16.7972 16.1742 16.7972C16.2842 16.7972 16.3932 16.7754 16.4947 16.7331C16.5962 16.6908 16.6884 16.6288 16.7659 16.5507C16.9161 16.3953 17 16.1876 17 15.9715C17 15.7554 16.9161 15.5477 16.7659 15.3924ZM7.84091 13.484C6.68718 13.484 5.55937 13.1419 4.60008 12.5009C3.64079 11.86 2.89312 10.9489 2.45161 9.88303C2.0101 8.81713 1.89458 7.64425 2.11966 6.51269C2.34474 5.38114 2.90031 4.34173 3.71612 3.52593C4.53192 2.71012 5.57132 2.15455 6.70288 1.92947C7.83444 1.70439 9.00732 1.81991 10.0732 2.26142C11.1391 2.70293 12.0502 3.4506 12.6911 4.40989C13.3321 5.36918 13.6742 6.49699 13.6742 7.65072C13.6742 9.19783 13.0596 10.6815 11.9657 11.7755C10.8717 12.8694 9.38802 13.484 7.84091 13.484Z"
        />
</svg>