<svg width="72" height="87" viewBox="0 0 72 87" fill="none" xmlns="http://www.w3.org/2000/svg">
<path d="M16.35 37.125C16.35 33.2936 20.5529 30.9476 23.8141 32.9587L30.5703 37.125L23.8141 41.2913C20.5529 43.3024 16.35 40.9564 16.35 37.125Z" fill="#FE3311"/>
<path d="M48.1859 41.2913L41.4297 37.125L48.1859 32.9587C51.4471 30.9476 55.65 33.2936 55.65 37.125C55.65 40.9564 51.4471 43.3024 48.1859 41.2913Z" fill="#FE3311"/>
<path fill-rule="evenodd" clip-rule="evenodd" d="M72 34.8C72 54.0195 51.3822 87 36 87C20.6177 87 0 54.0195 0 34.8C0 15.5805 16.1177 0 36 0C55.8822 0 72 15.5805 72 34.8ZM26.8059 28.107L36 33.7767L45.1941 28.107C52.2528 23.7541 61.35 28.832 61.35 37.125C61.35 45.418 52.2528 50.4959 45.1941 46.143L36 40.4733L26.8059 46.143C19.7472 50.4959 10.65 45.418 10.65 37.125C10.65 28.832 19.7472 23.7541 26.8059 28.107Z" fill="#FE3311"/>
</svg>
